# xmcd
#
# Track frame offsets:
#	150
#	2906
#	13530
#	22895
#	35842
#	45316
#	51672
#	75628
#	89546
#	105360
#	113275
#	126893
#	141702
#	167656
#
# Disc length: 2324 seconds
#
# Revision: 1
# Processed by: cddbd v1.5.2PL0 Copyright (c) Steve Scherf et al.
# Submitted via: audiograbber 1.83.01
#
DISCID=ae09120e
DTITLE=Victor Wainwrights - Family roots 1
DYEAR=2012
DGENRE=Blues
TTITLE0=Intro
TTITLE1=Got me running
TTITLE2=Lonesome 77203
TTITLE3=Help me make it through the night
TTITLE4=Invitation to the blues
TTITLE5=Four hand boogie #1
TTITLE6=Nightlife
TTITLE7=Sweet little sixteen
TTITLE8=Am i losing you
TTITLE9=Four hand boogie #2
TTITLE10=Trouble in mind
TTITLE11=Roking my life away
TTITLE12=For the good time
TTITLE13=Four hand boogie #3
EXTD=
EXTT0=
EXTT1=
EXTT2=
EXTT3=
EXTT4=
EXTT5=
EXTT6=
EXTT7=
EXTT8=
EXTT9=
EXTT10=
EXTT11=
EXTT12=
EXTT13=
PLAYORDER=
